Monda-Light.ufo
<glyph name="exclam" format="1">
  <advance width="840"/>
  <unicode hex="0021"/>
  <outline>
    <contour>
      <point x="333" y="0" type="line"/>
      <point x="509" y="0" type="line"/>
      <point x="509" y="183" type="line"/>
      <point x="333" y="183" type="line"/>
    </contour>
    <contour>
      <point x="397" y="348" type="curve"/>
      <point x="441" y="348" type="line"/>
      <point x="441" y="348"/>
      <point x="507" y="881"/>
      <point x="507" y="1427" type="curve"/>
      <point x="339" y="1427" type="line"/>
      <point x="339" y="881"/>
      <point x="397" y="348"/>
    </contour>
  </outline>
</glyph>
<glyph name="dollar" format="1">
  <advance width="1316"/>
  <unicode hex="0024"/>
  <outline>
    <contour>
      <point x="623" y="-408" type="line"/>
      <point x="733" y="-408" type="line"/>
      <point x="733" y="1758" type="line"/>
      <point x="623" y="1758" type="line"/>
    </contour>
    <component base="S"/>
  </outline>
</glyph>
<glyph name="hyphen" format="1">
  <advance width="1058"/>
  <unicode hex="002D"/>
  <outline>
    <contour>
      <point x="527" y="566" type="move" name="_mid"/>
    </contour>
    <contour>
      <point x="196" y="502" type="line"/>
      <point x="830" y="502" type="line"/>
      <point x="830" y="642" type="line"/>
      <point x="196" y="642" type="line"/>
    </contour>
  </outline>
</glyph>
<glyph name="one" format="1">
  <advance width="1173"/>
  <unicode hex="0031"/>
  <outline>
    <contour>
      <point x="180" y="0" type="line"/>
      <point x="1119" y="0" type="line"/>
      <point x="1119" y="123" type="line"/>
      <point x="749" y="123" type="line"/>
      <point x="749" y="1428" type="line"/>
      <point x="609" y="1428" type="line"/>
      <point x="197" y="1391" type="line"/>
      <point x="210" y="1267" type="line"/>
      <point x="605" y="1299" type="line"/>
      <point x="605" y="123" type="line"/>
      <point x="180" y="123" type="line"/>
    </contour>
  </outline>
</glyph>
<glyph name="six" format="1">
  <advance width="1173"/>
  <unicode hex="0036"/>
  <outline>
    <contour>
      <point x="609" y="-23" type="curve" smooth="yes"/>
      <point x="851" y="-23"/>
      <point x="1060" y="72"/>
      <point x="1060" y="408" type="curve" smooth="yes"/>
      <point x="1060" y="721"/>
      <point x="871" y="847"/>
      <point x="586" y="847" type="curve" smooth="yes"/>
      <point x="508" y="847"/>
      <point x="442" y="827"/>
      <point x="395" y="803" type="curve"/>
      <point x="773" y="1427" type="line"/>
      <point x="645" y="1427" type="line"/>
      <point x="317" y="856" type="line" smooth="yes"/>
      <point x="213" y="675"/>
      <point x="172" y="519"/>
      <point x="172" y="406" type="curve" smooth="yes"/>
      <point x="172" y="72"/>
      <point x="360" y="-23"/>
    </contour>
    <contour>
      <point x="605" y="105" type="curve" smooth="yes"/>
      <point x="408" y="105"/>
      <point x="301" y="136"/>
      <point x="301" y="405" type="curve" smooth="yes"/>
      <point x="301" y="656"/>
      <point x="423" y="708"/>
      <point x="607" y="708" type="curve" smooth="yes"/>
      <point x="779" y="708"/>
      <point x="925" y="695"/>
      <point x="925" y="399" type="curve" smooth="yes"/>
      <point x="925" y="135"/>
      <point x="799" y="105"/>
    </contour>
  </outline>
</glyph>
<glyph name="eight" format="1">
  <advance width="1173"/>
  <unicode hex="0038"/>
  <outline>
    <contour>
      <point x="581" y="-23" type="curve" smooth="yes"/>
      <point x="850" y="-23"/>
      <point x="1047" y="93"/>
      <point x="1047" y="363" type="curve" smooth="yes"/>
      <point x="1047" y="597"/>
      <point x="866" y="707"/>
      <point x="755" y="767" type="curve"/>
      <point x="873" y="838"/>
      <point x="1025" y="886"/>
      <point x="1025" y="1096" type="curve" smooth="yes"/>
      <point x="1025" y="1400"/>
      <point x="768" y="1451"/>
      <point x="588" y="1451" type="curve" smooth="yes"/>
      <point x="402" y="1451"/>
      <point x="153" y="1399"/>
      <point x="153" y="1092" type="curve" smooth="yes"/>
      <point x="153" y="890"/>
      <point x="304" y="839"/>
      <point x="427" y="767" type="curve"/>
      <point x="291" y="707"/>
      <point x="125" y="585"/>
      <point x="125" y="364" type="curve" smooth="yes"/>
      <point x="125" y="89"/>
      <point x="316" y="-23"/>
    </contour>
    <contour>
      <point x="588" y="108" type="curve" smooth="yes"/>
      <point x="407" y="108"/>
      <point x="267" y="149"/>
      <point x="267" y="361" type="curve" smooth="yes"/>
      <point x="267" y="545"/>
      <point x="437" y="621"/>
      <point x="587" y="699" type="curve"/>
      <point x="735" y="621"/>
      <point x="908" y="545"/>
      <point x="908" y="361" type="curve" smooth="yes"/>
      <point x="908" y="149"/>
      <point x="765" y="108"/>
    </contour>
    <contour>
      <point x="587" y="832" type="curve"/>
      <point x="455" y="896"/>
      <point x="297" y="957"/>
      <point x="297" y="1100" type="curve" smooth="yes"/>
      <point x="297" y="1238"/>
      <point x="377" y="1316"/>
      <point x="588" y="1316" type="curve" smooth="yes"/>
      <point x="796" y="1316"/>
      <point x="878" y="1240"/>
      <point x="878" y="1100" type="curve" smooth="yes"/>
      <point x="878" y="954"/>
      <point x="724" y="897"/>
    </contour>
  </outline>
</glyph>
<glyph name="C" format="1">
  <advance width="1424"/>
  <unicode hex="0043"/>
  <outline>
    <contour>
      <point x="751" y="1428" type="move" name="top"/>
    </contour>
    <contour>
      <point x="765" y="0" type="move" name="bot"/>
    </contour>
    <contour>
      <point x="745" y="-20" type="curve" smooth="yes"/>
      <point x="1174" y="-20"/>
      <point x="1255" y="121"/>
      <point x="1258" y="413" type="curve" smooth="yes"/>
      <point x="1258" y="419"/>
      <point x="1258" y="408"/>
      <point x="1258" y="413" type="curve"/>
      <point x="1127" y="413" type="line"/>
      <point x="1127" y="400"/>
      <point x="1127" y="415"/>
      <point x="1127" y="402" type="curve" smooth="yes"/>
      <point x="1119" y="114"/>
      <point x="1017" y="100"/>
      <point x="751" y="100" type="curve" smooth="yes"/>
      <point x="474" y="100"/>
      <point x="335" y="167"/>
      <point x="335" y="456" type="curve" smooth="yes"/>
      <point x="335" y="956" type="line" smooth="yes"/>
      <point x="335" y="1245"/>
      <point x="467" y="1329"/>
      <point x="742" y="1329" type="curve" smooth="yes"/>
      <point x="1019" y="1329"/>
      <point x="1117" y="1303"/>
      <point x="1127" y="1008" type="curve" smooth="yes"/>
      <point x="1127" y="993"/>
      <point x="1127" y="1024"/>
      <point x="1127" y="1009" type="curve"/>
      <point x="1258" y="1016" type="line"/>
      <point x="1258" y="1023"/>
      <point x="1258" y="1020"/>
      <point x="1258" y="1026" type="curve" smooth="yes"/>
      <point x="1253" y="1324"/>
      <point x="1140" y="1448"/>
      <point x="742" y="1448" type="curve" smooth="yes"/>
      <point x="283" y="1448"/>
      <point x="190" y="1229"/>
      <point x="190" y="918" type="curve" smooth="yes"/>
      <point x="190" y="487" type="line" smooth="yes"/>
      <point x="190" y="180"/>
      <point x="288" y="-20"/>
    </contour>
  </outline>
</glyph>
<glyph name="E" format="1">
  <advance width="1218"/>
  <unicode hex="0045"/>
  <outline>
    <contour>
      <point x="636" y="1428" type="move" name="top"/>
    </contour>
    <contour>
      <point x="815" y="0" type="move" name="ogonek"/>
    </contour>
    <contour>
      <point x="569" y="0" type="move" name="bot"/>
    </contour>
    <contour>
      <point x="222" y="0" type="line"/>
      <point x="1099" y="0" type="line"/>
      <point x="1099" y="106" type="line"/>
      <point x="366" y="106" type="line"/>
      <point x="366" y="684" type="line"/>
      <point x="1001" y="684" type="line"/>
      <point x="1001" y="796" type="line"/>
      <point x="366" y="796" type="line"/>
      <point x="366" y="1322" type="line"/>
      <point x="1086" y="1322" type="line"/>
      <point x="1086" y="1428" type="line"/>
      <point x="222" y="1428" type="line"/>
    </contour>
  </outline>
</glyph>
<glyph name="G" format="1">
  <advance width="1516"/>
  <unicode hex="0047"/>
  <outline>
    <contour>
      <point x="748" y="1428" type="move" name="top"/>
    </contour>
    <contour>
      <point x="784" y="0" type="move" name="bot"/>
    </contour>
    <contour>
      <point x="768" y="-20" type="curve" smooth="yes"/>
      <point x="1034" y="-20"/>
      <point x="1197" y="69"/>
      <point x="1226" y="292" type="curve"/>
      <point x="1238" y="0" type="line"/>
      <point x="1320" y="0" type="line"/>
      <point x="1320" y="722" type="line"/>
      <point x="787" y="722" type="line"/>
      <point x="787" y="604" type="line"/>
      <point x="1157" y="604" type="line"/>
      <point x="1157" y="456" type="line" smooth="yes"/>
      <point x="1157" y="167"/>
      <point x="1046" y="100"/>
      <point x="768" y="100" type="curve" smooth="yes"/>
      <point x="492" y="100"/>
      <point x="341" y="167"/>
      <point x="341" y="456" type="curve" smooth="yes"/>
      <point x="341" y="956" type="line" smooth="yes"/>
      <point x="341" y="1245"/>
      <point x="494" y="1329"/>
      <point x="768" y="1329" type="curve" smooth="yes"/>
      <point x="1063" y="1329"/>
      <point x="1162" y="1315"/>
      <point x="1175" y="1047" type="curve" smooth="yes"/>
      <point x="1175" y="1029"/>
      <point x="1176" y="1045"/>
      <point x="1176" y="1024" type="curve"/>
      <point x="1295" y="1035" type="line"/>
      <point x="1295" y="1050"/>
      <point x="1295" y="1051"/>
      <point x="1294" y="1065" type="curve" smooth="yes"/>
      <point x="1285" y="1302"/>
      <point x="1198" y="1448"/>
      <point x="768" y="1448" type="curve" smooth="yes"/>
      <point x="310" y="1448"/>
      <point x="197" y="1229"/>
      <point x="197" y="918" type="curve" smooth="yes"/>
      <point x="197" y="487" type="line" smooth="yes"/>
      <point x="197" y="180"/>
      <point x="311" y="-20"/>
    </contour>
  </outline>
</glyph>
<glyph name="H" format="1">
  <advance width="1444"/>
  <unicode hex="0048"/>
  <outline>
    <contour>
      <point x="698" y="1428" type="move" name="top"/>
    </contour>
    <contour>
      <point x="212" y="0" type="line"/>
      <point x="355" y="0" type="line"/>
      <point x="355" y="685" type="line"/>
      <point x="1089" y="685" type="line"/>
      <point x="1089" y="0" type="line"/>
      <point x="1232" y="0" type="line"/>
      <point x="1232" y="1428" type="line"/>
      <point x="1089" y="1428" type="line"/>
      <point x="1089" y="782" type="line"/>
      <point x="355" y="782" type="line"/>
      <point x="355" y="1428" type="line"/>
      <point x="212" y="1428" type="line"/>
    </contour>
  </outline>
</glyph>
<glyph name="bracketleft" format="1">
  <advance width="724"/>
  <unicode hex="005B"/>
  <outline>
    <contour>
      <point x="282" y="-68" type="line"/>
      <point x="598" y="-68" type="line"/>
      <point x="598" y="50" type="line"/>
      <point x="419" y="50" type="line"/>
      <point x="419" y="1375" type="line"/>
      <point x="598" y="1375" type="line"/>
      <point x="598" y="1491" type="line"/>
      <point x="282" y="1491" type="line"/>
    </contour>
  </outline>
</glyph>
<glyph name="e" format="1">
  <advance width="1112"/>
  <unicode hex="0065"/>
  <outline>
    <contour>
      <point x="564" y="1052" type="move" name="top"/>
    </contour>
    <contour>
      <point x="693" y="0" type="move" name="ogonek"/>
    </contour>
    <contour>
      <point x="581" y="0" type="move" name="bot"/>
    </contour>
    <contour>
      <point x="581" y="-21" type="curve" smooth="yes"/>
      <point x="884" y="-21"/>
      <point x="937" y="32"/>
      <point x="974" y="253" type="curve"/>
      <point x="860" y="253" type="line"/>
      <point x="837" y="94"/>
      <point x="786" y="96"/>
      <point x="578" y="96" type="curve" smooth="yes"/>
      <point x="336" y="96"/>
      <point x="290" y="186"/>
      <point x="290" y="385" type="curve" smooth="yes"/>
      <point x="290" y="519" type="line"/>
      <point x="977" y="519" type="line"/>
      <point x="977" y="766" type="line" smooth="yes"/>
      <point x="977" y="958"/>
      <point x="839" y="1070"/>
      <point x="572" y="1070" type="curve" smooth="yes"/>
      <point x="253" y="1070"/>
      <point x="153" y="924"/>
      <point x="153" y="736" type="curve" smooth="yes"/>
      <point x="153" y="397" type="line" smooth="yes"/>
      <point x="153" y="140"/>
      <point x="233" y="-21"/>
    </contour>
    <contour>
      <point x="290" y="622" type="line"/>
      <point x="290" y="753" type="line" smooth="yes"/>
      <point x="290" y="894"/>
      <point x="394" y="953"/>
      <point x="568" y="953" type="curve" smooth="yes"/>
      <point x="735" y="953"/>
      <point x="840" y="912"/>
      <point x="840" y="779" type="curve" smooth="yes"/>
      <point x="840" y="622" type="line"/>
    </contour>
  </outline>
</glyph>
<glyph name="h" format="1">
  <advance width="1195"/>
  <unicode hex="0068"/>
  <outline>
    <contour>
      <point x="608" y="913" type="move" name="top"/>
    </contour>
    <contour>
      <point x="196" y="0" type="line"/>
      <point x="333" y="0" type="line"/>
      <point x="333" y="770" type="line" smooth="yes"/>
      <point x="333" y="871"/>
      <point x="399" y="961"/>
      <point x="634" y="961" type="curve" smooth="yes"/>
      <point x="793" y="961"/>
      <point x="876" y="899"/>
      <point x="876" y="799" type="curve" smooth="yes"/>
      <point x="876" y="0" type="line"/>
      <point x="1014" y="0" type="line"/>
      <point x="1014" y="760" type="line" smooth="yes"/>
      <point x="1014" y="920"/>
      <point x="931" y="1070"/>
      <point x="637" y="1070" type="curve" smooth="yes"/>
      <point x="480" y="1070"/>
      <point x="405" y="1024"/>
      <point x="333" y="954" type="curve"/>
      <point x="333" y="1499" type="line"/>
      <point x="196" y="1499" type="line"/>
    </contour>
  </outline>
</glyph>
<glyph name="p" format="1">
  <advance width="1191"/>
  <unicode hex="0070"/>
  <outline>
    <contour>
      <point x="617" y="1052" type="move" name="top"/>
    </contour>
    <contour>
      <point x="197" y="-407" type="line"/>
      <point x="334" y="-407" type="line"/>
      <point x="334" y="44" type="line"/>
      <point x="385" y="16"/>
      <point x="472" y="-21"/>
      <point x="611" y="-21" type="curve" smooth="yes"/>
      <point x="871" y="-21"/>
      <point x="1028" y="124"/>
      <point x="1028" y="355" type="curve" smooth="yes"/>
      <point x="1028" y="716" type="line" smooth="yes"/>
      <point x="1028" y="919"/>
      <point x="908" y="1070"/>
      <point x="631" y="1070" type="curve" smooth="yes"/>
      <point x="507" y="1070"/>
      <point x="386" y="1014"/>
      <point x="339" y="966" type="curve"/>
      <point x="320" y="1052" type="line"/>
      <point x="197" y="1052" type="line"/>
    </contour>
    <contour>
      <point x="606" y="96" type="curve" smooth="yes"/>
      <point x="495" y="96"/>
      <point x="402" y="120"/>
      <point x="334" y="159" type="curve"/>
      <point x="334" y="814" type="line"/>
      <point x="343" y="837"/>
      <point x="451" y="953"/>
      <point x="612" y="953" type="curve" smooth="yes"/>
      <point x="764" y="953"/>
      <point x="891" y="876"/>
      <point x="891" y="737" type="curve" smooth="yes"/>
      <point x="891" y="326" type="line" smooth="yes"/>
      <point x="891" y="184"/>
      <point x="768" y="96"/>
    </contour>
  </outline>
</glyph>
<glyph name="r" format="1">
  <advance width="764"/>
  <unicode hex="0072"/>
  <outline>
    <contour>
      <point x="438" y="1052" type="move" name="top"/>
    </contour>
    <contour>
      <point x="277" y="0" type="move" name="bot"/>
    </contour>
    <contour>
      <point x="202" y="0" type="line"/>
      <point x="339" y="0" type="line"/>
      <point x="339" y="723" type="line"/>
      <point x="327" y="841"/>
      <point x="488" y="951"/>
      <point x="695" y="947" type="curve"/>
      <point x="701" y="1066" type="line"/>
      <point x="531" y="1060"/>
      <point x="390" y="1016"/>
      <point x="339" y="856" type="curve"/>
      <point x="339" y="1052" type="line"/>
      <point x="202" y="1052" type="line"/>
    </contour>
  </outline>
</glyph>
<glyph name="w" format="1">
  <advance width="1567"/>
  <unicode hex="0077"/>
  <outline>
    <contour>
      <point x="786" y="1052" type="move" name="top"/>
    </contour>
    <contour>
      <point x="352" y="0" type="line"/>
      <point x="482" y="0" type="line"/>
      <point x="778" y="907" type="line"/>
      <point x="1080" y="0" type="line"/>
      <point x="1200" y="0" type="line"/>
      <point x="1525" y="1052" type="line"/>
      <point x="1398" y="1052" type="line"/>
      <point x="1142" y="188" type="line"/>
      <point x="856" y="1052" type="line"/>
      <point x="699" y="1052" type="line"/>
      <point x="426" y="182" type="line"/>
      <point x="165" y="1052" type="line"/>
      <point x="42" y="1052" type="line"/>
    </contour>
  </outline>
</glyph>
<glyph name="y" format="1">
  <advance width="1117"/>
  <unicode hex="0079"/>
  <outline>
    <contour>
      <point x="589" y="1052" type="move" name="top"/>
    </contour>
    <contour>
      <point x="215" y="-371" type="line"/>
      <point x="511" y="-389"/>
      <point x="611" y="-235"/>
      <point x="684" y="-12" type="curve" smooth="yes"/>
      <point x="1046" y="1052" type="line"/>
      <point x="904" y="1052" type="line"/>
      <point x="604" y="134" type="line"/>
      <point x="253" y="1052" type="line"/>
      <point x="92" y="1052" type="line"/>
      <point x="548" y="-15" type="line"/>
      <point x="503" y="-184"/>
      <point x="365" y="-271"/>
      <point x="227" y="-258" type="curve"/>
    </contour>
  </outline>
</glyph>
<glyph name="braceright" format="1">
  <advance width="929"/>
  <unicode hex="007D"/>
  <outline>
    <contour>
      <point x="99" y="-254" type="curve"/>
      <point x="634" y="-254"/>
      <point x="586" y="-61"/>
      <point x="586" y="211" type="curve" smooth="yes"/>
      <point x="586" y="225" type="line" smooth="yes"/>
      <point x="586" y="629"/>
      <point x="674" y="561"/>
      <point x="837" y="561" type="curve"/>
      <point x="837" y="660" type="line"/>
      <point x="675" y="660"/>
      <point x="586" y="583"/>
      <point x="586" y="986" type="curve" smooth="yes"/>
      <point x="586" y="991" type="line" smooth="yes"/>
      <point x="586" y="1236"/>
      <point x="645" y="1476"/>
      <point x="99" y="1476" type="curve"/>
      <point x="99" y="1476"/>
      <point x="99" y="1339"/>
      <point x="99" y="1339" type="curve" smooth="yes"/>
      <point x="446" y="1339"/>
      <point x="447" y="1266"/>
      <point x="447" y="977" type="curve" smooth="yes"/>
      <point x="447" y="955" type="line" smooth="yes"/>
      <point x="447" y="790"/>
      <point x="466" y="643"/>
      <point x="517" y="605" type="curve"/>
      <point x="469" y="573"/>
      <point x="447" y="409"/>
      <point x="447" y="254" type="curve" smooth="yes"/>
      <point x="447" y="224" type="line" smooth="yes"/>
      <point x="447" y="-57"/>
      <point x="447" y="-117"/>
      <point x="99" y="-117" type="curve" smooth="yes"/>
      <point x="99" y="-117"/>
      <point x="99" y="-254"/>
    </contour>
  </outline>
</glyph>
<glyph name="cent" format="1">
  <advance width="1112"/>
  <unicode hex="00A2"/>
  <outline>
    <contour>
      <point x="541" y="1017" type="line"/>
      <point x="650" y="1017" type="line"/>
      <point x="650" y="1269" type="line"/>
      <point x="541" y="1269" type="line"/>
    </contour>
    <contour>
      <point x="541" y="-200" type="line"/>
      <point x="650" y="-200" type="line"/>
      <point x="650" y="52" type="line"/>
      <point x="541" y="52" type="line"/>
    </contour>
    <component base="c"/>
  </outline>
</glyph>
<glyph name="sterling" format="1">
  <advance width="1266"/>
  <unicode hex="00A3"/>
  <outline>
    <contour>
      <point x="294" y="0" type="line"/>
      <point x="983" y="0" type="line"/>
      <point x="983" y="124" type="line"/>
      <point x="430" y="124" type="line"/>
      <point x="492" y="696" type="line"/>
      <point x="993" y="696" type="line"/>
      <point x="993" y="807" type="line"/>
      <point x="506" y="807" type="line"/>
      <point x="543" y="1140" type="line" smooth="yes"/>
      <point x="566" y="1332"/>
      <point x="682" y="1355"/>
      <point x="755" y="1355" type="curve" smooth="yes"/>
      <point x="874" y="1355"/>
      <point x="1003" y="1288"/>
      <point x="1001" y="1286" type="curve"/>
      <point x="1045" y="1388" type="line"/>
      <point x="890" y="1454"/>
      <point x="797" y="1465"/>
      <point x="734" y="1465" type="curve" smooth="yes"/>
      <point x="558" y="1465"/>
      <point x="432" y="1304"/>
      <point x="413" y="1163" type="curve" smooth="yes"/>
      <point x="375" y="807" type="line"/>
      <point x="185" y="807" type="line"/>
      <point x="185" y="696" type="line"/>
      <point x="363" y="696" type="line"/>
    </contour>
  </outline>
</glyph>
<glyph name="currency" format="1">
  <advance width="1163"/>
  <unicode hex="00A4"/>
  <outline>
    <contour>
      <point x="566" y="347" type="curve" smooth="yes"/>
      <point x="664" y="347"/>
      <point x="762" y="396"/>
      <point x="821" y="487" type="curve"/>
      <point x="1000" y="371" type="line"/>
      <point x="1052" y="452" type="line"/>
      <point x="861" y="576" type="line"/>
      <point x="869" y="606"/>
      <point x="873" y="637"/>
      <point x="873" y="669" type="curve" smooth="yes"/>
      <point x="873" y="734"/>
      <point x="853" y="793"/>
      <point x="825" y="844" type="curve"/>
      <point x="1037" y="997" type="line"/>
      <point x="986" y="1080" type="line"/>
      <point x="763" y="918" type="line"/>
      <point x="706" y="969"/>
      <point x="634" y="990"/>
      <point x="566" y="990" type="curve" smooth="yes"/>
      <point x="500" y="990"/>
      <point x="430" y="970"/>
      <point x="373" y="918" type="curve"/>
      <point x="166" y="1057" type="line"/>
      <point x="111" y="974" type="line"/>
      <point x="312" y="844" type="line"/>
      <point x="280" y="794"/>
      <point x="262" y="734"/>
      <point x="262" y="669" type="curve" smooth="yes"/>
      <point x="262" y="625"/>
      <point x="271" y="582"/>
      <point x="286" y="543" type="curve"/>
      <point x="126" y="429" type="line"/>
      <point x="179" y="346" type="line"/>
      <point x="333" y="461" type="line"/>
      <point x="395" y="385"/>
      <point x="480" y="347"/>
    </contour>
    <contour>
      <point x="568" y="394" type="curve" smooth="yes"/>
      <point x="440" y="394"/>
      <point x="323" y="515"/>
      <point x="323" y="670" type="curve" smooth="yes"/>
      <point x="323" y="827"/>
      <point x="440" y="947"/>
      <point x="568" y="947" type="curve" smooth="yes"/>
      <point x="697" y="947"/>
      <point x="815" y="827"/>
      <point x="815" y="670" type="curve" smooth="yes"/>
      <point x="815" y="515"/>
      <point x="697" y="394"/>
    </contour>
  </outline>
</glyph>
<glyph name="brokenbar" format="1">
  <advance width="617"/>
  <unicode hex="00A6"/>
  <outline>
    <contour>
      <point x="238" y="-195" type="line"/>
      <point x="398" y="-195" type="line"/>
      <point x="398" y="467" type="line"/>
      <point x="238" y="467" type="line"/>
    </contour>
    <contour>
      <point x="238" y="877" type="line"/>
      <point x="398" y="877" type="line"/>
      <point x="398" y="1602" type="line"/>
      <point x="238" y="1602" type="line"/>
    </contour>
  </outline>
</glyph>
<glyph name="dieresis" format="1">
  <advance width="1060"/>
  <unicode hex="00A8"/>
  <outline>
    <contour>
      <point x="524" y="1052" type="move" name="_top"/>
    </contour>
    <contour>
      <point x="184" y="1402" type="line"/>
      <point x="355" y="1402" type="line"/>
      <point x="355" y="1552" type="line"/>
      <point x="184" y="1552" type="line"/>
    </contour>
    <contour>
      <point x="683" y="1402" type="line"/>
      <point x="854" y="1402" type="line"/>
      <point x="854" y="1552" type="line"/>
      <point x="683" y="1552" type="line"/>
    </contour>
  </outline>
</glyph>
<glyph name="copyright" format="1">
  <advance width="1789"/>
  <unicode hex="00A9"/>
  <outline>
    <contour>
      <point x="905" y="287" type="curve" smooth="yes"/>
      <point x="1181" y="287"/>
      <point x="1230" y="422"/>
      <point x="1230" y="598" type="curve" smooth="yes"/>
      <point x="1230" y="632" type="line"/>
      <point x="1114" y="632" type="line"/>
      <point x="1114" y="571" type="line" smooth="yes"/>
      <point x="1114" y="419"/>
      <point x="1058" y="376"/>
      <point x="905" y="376" type="curve" smooth="yes"/>
      <point x="753" y="376"/>
      <point x="673" y="419"/>
      <point x="673" y="571" type="curve" smooth="yes"/>
      <point x="673" y="890" type="line" smooth="yes"/>
      <point x="673" y="1042"/>
      <point x="753" y="1091"/>
      <point x="904" y="1091" type="curve" smooth="yes"/>
      <point x="1056" y="1091"/>
      <point x="1114" y="1042"/>
      <point x="1114" y="890" type="curve" smooth="yes"/>
      <point x="1114" y="826" type="line"/>
      <point x="1230" y="836" type="line"/>
      <point x="1230" y="861" type="line" smooth="yes"/>
      <point x="1230" y="1043"/>
      <point x="1181" y="1182"/>
      <point x="904" y="1182" type="curve" smooth="yes"/>
      <point x="616" y="1182"/>
      <point x="553" y="1050"/>
      <point x="553" y="868" type="curve" smooth="yes"/>
      <point x="553" y="590" type="line" smooth="yes"/>
      <point x="553" y="411"/>
      <point x="618" y="287"/>
    </contour>
    <contour>
      <point x="896" y="82" type="curve" smooth="yes"/>
      <point x="532" y="82"/>
      <point x="267" y="357"/>
      <point x="267" y="722" type="curve" smooth="yes"/>
      <point x="267" y="1086"/>
      <point x="532" y="1361"/>
      <point x="896" y="1361" type="curve" smooth="yes"/>
      <point x="1262" y="1361"/>
      <point x="1524" y="1086"/>
      <point x="1524" y="722" type="curve" smooth="yes"/>
      <point x="1524" y="357"/>
      <point x="1262" y="82"/>
    </contour>
    <contour>
      <point x="894" y="-14" type="curve" smooth="yes"/>
      <point x="1310" y="-14"/>
      <point x="1630" y="303"/>
      <point x="1630" y="722" type="curve" smooth="yes"/>
      <point x="1630" y="1139"/>
      <point x="1310" y="1456"/>
      <point x="894" y="1456" type="curve" smooth="yes"/>
      <point x="481" y="1456"/>
      <point x="158" y="1139"/>
      <point x="158" y="722" type="curve" smooth="yes"/>
      <point x="158" y="303"/>
      <point x="481" y="-14"/>
    </contour>
  </outline>
</glyph>
<glyph name="onesuperior" format="1">
  <advance width="1004"/>
  <unicode hex="00B9"/>
  <outline>
    <contour>
      <point x="203" y="736" type="line"/>
      <point x="784" y="736" type="line"/>
      <point x="784" y="815" type="line"/>
      <point x="564" y="815" type="line"/>
      <point x="564" y="1538" type="line"/>
      <point x="474" y="1538" type="line"/>
      <point x="215" y="1514" type="line"/>
      <point x="224" y="1433" type="line"/>
      <point x="471" y="1454" type="line"/>
      <point x="471" y="815" type="line"/>
      <point x="203" y="815" type="line"/>
    </contour>
  </outline>
</glyph>
<glyph name="guillemotright" format="1">
  <advance width="1072"/>
  <unicode hex="00BB"/>
  <outline>
    <contour>
      <point x="254" y="80" type="line"/>
      <point x="527" y="530" type="line"/>
      <point x="247" y="980" type="line"/>
      <point x="109" y="910" type="line"/>
      <point x="314" y="530" type="line"/>
      <point x="109" y="150" type="line"/>
    </contour>
    <contour>
      <point x="668" y="80" type="line"/>
      <point x="941" y="530" type="line"/>
      <point x="661" y="980" type="line"/>
      <point x="521" y="910" type="line"/>
      <point x="728" y="530" type="line"/>
      <point x="521" y="150" type="line"/>
    </contour>
  </outline>
</glyph>
<glyph name="onequarter" format="1">
  <advance width="1815"/>
  <unicode hex="00BC"/>
  <outline>
    <contour>
      <point x="1461" y="0" type="line"/>
      <point x="1547" y="0" type="line"/>
      <point x="1547" y="205" type="line"/>
      <point x="1676" y="205" type="line"/>
      <point x="1676" y="253" type="line"/>
      <point x="1547" y="253" type="line"/>
      <point x="1547" y="484" type="line"/>
      <point x="1461" y="484" type="line"/>
      <point x="1461" y="253" type="line"/>
      <point x="1189" y="253" type="line"/>
      <point x="1585" y="783" type="line"/>
      <point x="1474" y="783" type="line"/>
      <point x="1067" y="257" type="line"/>
      <point x="1067" y="205" type="line"/>
      <point x="1461" y="205" type="line"/>
    </contour>
    <contour>
      <point x="184" y="793" type="line"/>
      <point x="766" y="793" type="line"/>
      <point x="766" y="867" type="line"/>
      <point x="544" y="867" type="line"/>
      <point x="544" y="1522" type="line"/>
      <point x="461" y="1522" type="line"/>
      <point x="195" y="1501" type="line"/>
      <point x="204" y="1421" type="line"/>
      <point x="462" y="1440" type="line"/>
      <point x="462" y="867" type="line"/>
      <point x="184" y="867" type="line"/>
    </contour>
    <contour>
      <point x="590" y="0" type="line"/>
      <point x="697" y="0" type="line"/>
      <point x="1397" y="1411" type="line"/>
      <point x="1300" y="1411" type="line"/>
    </contour>
  </outline>
</glyph>
<glyph name="onehalf" format="1">
  <advance width="1728"/>
  <unicode hex="00BD"/>
  <outline>
    <contour>
      <point x="1160" y="4" type="line"/>
      <point x="1591" y="4" type="line"/>
      <point x="1591" y="66" type="line"/>
      <point x="1259" y="66" type="line"/>
      <point x="1460" y="311" type="line" smooth="yes"/>
      <point x="1521" y="389"/>
      <point x="1578" y="425"/>
      <point x="1578" y="540" type="curve" smooth="yes"/>
      <point x="1578" y="649"/>
      <point x="1495" y="745"/>
      <point x="1367" y="745" type="curve" smooth="yes"/>
      <point x="1268" y="745"/>
      <point x="1140" y="688"/>
      <point x="1140" y="544" type="curve"/>
      <point x="1196" y="544" type="line"/>
      <point x="1196" y="670"/>
      <point x="1255" y="677"/>
      <point x="1369" y="677" type="curve" smooth="yes"/>
      <point x="1472" y="677"/>
      <point x="1518" y="633"/>
      <point x="1519" y="540" type="curve"/>
      <point x="1519" y="462"/>
      <point x="1491" y="441"/>
      <point x="1409" y="350" type="curve" smooth="yes"/>
      <point x="1169" y="55" type="line"/>
    </contour>
    <contour>
      <point x="184" y="793" type="line"/>
      <point x="766" y="793" type="line"/>
      <point x="766" y="867" type="line"/>
      <point x="544" y="867" type="line"/>
      <point x="544" y="1522" type="line"/>
      <point x="461" y="1522" type="line"/>
      <point x="195" y="1501" type="line"/>
      <point x="204" y="1421" type="line"/>
      <point x="462" y="1440" type="line"/>
      <point x="462" y="867" type="line"/>
      <point x="184" y="867" type="line"/>
    </contour>
    <contour>
      <point x="572" y="0" type="line"/>
      <point x="679" y="0" type="line"/>
      <point x="1379" y="1411" type="line"/>
      <point x="1282" y="1411" type="line"/>
    </contour>
  </outline>
</glyph>
<glyph name="divide" format="1">
  <advance width="1038"/>
  <unicode hex="00F7"/>
  <outline>
    <contour>
      <point x="427" y="88" type="line"/>
      <point x="619" y="88" type="line"/>
      <point x="619" y="285" type="line"/>
      <point x="427" y="285" type="line"/>
    </contour>
    <contour>
      <point x="93" y="468" type="line"/>
      <point x="945" y="468" type="line"/>
      <point x="945" y="589" type="line"/>
      <point x="93" y="589" type="line"/>
    </contour>
    <contour>
      <point x="427" y="784" type="line"/>
      <point x="619" y="784" type="line"/>
      <point x="619" y="981" type="line"/>
      <point x="427" y="981" type="line"/>
    </contour>
  </outline>
</glyph>
<glyph name="oslash" format="1">
  <advance width="1170"/>
  <unicode hex="00F8"/>
  <outline>
    <contour>
      <point x="579" y="1052" type="move" name="top"/>
    </contour>
    <contour>
      <point x="361" y="-233" type="line"/>
      <point x="904" y="1196" type="line"/>
      <point x="803" y="1233" type="line"/>
      <point x="257" y="-196" type="line"/>
    </contour>
    <component base="o"/>
  </outline>
</glyph>
<glyph name="florin" format="1">
  <advance width="810"/>
  <unicode hex="0192"/>
  <outline>
    <contour>
      <point x="182" y="-181" type="curve" smooth="yes"/>
      <point x="367" y="-181"/>
      <point x="465" y="-117"/>
      <point x="465" y="85" type="curve" smooth="yes"/>
      <point x="465" y="657" type="line"/>
      <point x="568" y="657" type="line"/>
      <point x="568" y="796" type="line"/>
      <point x="465" y="796" type="line"/>
      <point x="465" y="1159" type="line" smooth="yes"/>
      <point x="465" y="1252"/>
      <point x="491" y="1328"/>
      <point x="653" y="1328" type="curve" smooth="yes"/>
      <point x="661" y="1328"/>
      <point x="661" y="1331"/>
      <point x="666" y="1330" type="curve"/>
      <point x="666" y="1440" type="line"/>
      <point x="637" y="1443"/>
      <point x="600" y="1445"/>
      <point x="573" y="1445" type="curve" smooth="yes"/>
      <point x="379" y="1445"/>
      <point x="287" y="1380"/>
      <point x="287" y="1139" type="curve" smooth="yes"/>
      <point x="287" y="796" type="line"/>
      <point x="188" y="796" type="line"/>
      <point x="188" y="657" type="line"/>
      <point x="287" y="657" type="line"/>
      <point x="287" y="56" type="line" smooth="yes"/>
      <point x="287" y="-29"/>
      <point x="242" y="-64"/>
      <point x="119" y="-64" type="curve" smooth="yes"/>
      <point x="104" y="-64"/>
      <point x="94" y="-66"/>
      <point x="81" y="-65" type="curve"/>
      <point x="81" y="-175" type="line"/>
      <point x="113" y="-179"/>
      <point x="152" y="-181"/>
    </contour>
  </outline>
</glyph>
<glyph name="dotlessj" format="1">
  <advance width="548"/>
  <unicode hex="0237"/>
  <outline>
    <contour>
      <point x="308" y="1052" type="move" name="top"/>
    </contour>
    <contour>
      <point x="34" y="-367" type="line"/>
      <point x="74" y="-367" type="line" smooth="yes"/>
      <point x="243" y="-367"/>
      <point x="365" y="-378"/>
      <point x="365" y="-7" type="curve" smooth="yes"/>
      <point x="365" y="1052" type="line"/>
      <point x="228" y="1052" type="line"/>
      <point x="228" y="-32" type="line" smooth="yes"/>
      <point x="228" y="-255"/>
      <point x="155" y="-234"/>
      <point x="26" y="-234" type="curve" smooth="yes"/>
      <point x="7" y="-234" type="line"/>
    </contour>
  </outline>
</glyph>
<glyph name="caron" format="1">
  <advance width="512"/>
  <unicode hex="02C7"/>
  <outline>
    <contour>
      <point x="249" y="1052" type="move" name="_top"/>
    </contour>
    <contour>
      <point x="310" y="1330" type="line"/>
      <point x="513" y="1576" type="line"/>
      <point x="367" y="1576" type="line"/>
      <point x="259" y="1432" type="line"/>
      <point x="143" y="1576" type="line"/>
      <point x="-7" y="1576" type="line"/>
      <point x="205" y="1330" type="line"/>
    </contour>
  </outline>
</glyph>
<glyph name="breve" format="1">
  <advance width="512"/>
  <unicode hex="02D8"/>
  <outline>
    <contour>
      <point x="267" y="1052" type="move" name="_top"/>
    </contour>
    <contour>
      <point x="256" y="1340" type="curve" smooth="yes"/>
      <point x="402" y="1340"/>
      <point x="464" y="1460"/>
      <point x="464" y="1524" type="curve"/>
      <point x="349" y="1524" type="line"/>
      <point x="349" y="1474"/>
      <point x="302" y="1440"/>
      <point x="256" y="1440" type="curve" smooth="yes"/>
      <point x="210" y="1440"/>
      <point x="163" y="1474"/>
      <point x="163" y="1524" type="curve"/>
      <point x="48" y="1524" type="line"/>
      <point x="48" y="1460"/>
      <point x="110" y="1340"/>
    </contour>
  </outline>
</glyph>
<glyph name="hungarumlaut" format="1">
  <advance width="1024"/>
  <unicode hex="02DD"/>
  <outline>
    <contour>
      <point x="456" y="1052" type="move" name="_top"/>
    </contour>
    <contour>
      <point x="199" y="1375" type="line"/>
      <point x="314" y="1375" type="line"/>
      <point x="550" y="1765" type="line"/>
      <point x="351" y="1765" type="line"/>
    </contour>
    <contour>
      <point x="609" y="1375" type="line"/>
      <point x="724" y="1375" type="line"/>
      <point x="960" y="1765" type="line"/>
      <point x="761" y="1765" type="line"/>
    </contour>
  </outline>
</glyph>
<glyph name="uni0312" format="1">
  <advance width="600"/>
  <unicode hex="0312"/>
  <outline>
    <contour>
      <point x="299" y="1052" type="move" name="_top"/>
    </contour>
    <component base="comma" xScale="-1.0" yScale="-1.0" xOffset="569" yOffset="1571"/>
  </outline>
</glyph>
<glyph name="pi" format="1">
  <advance width="1134"/>
  <unicode hex="03C0"/>
  <outline>
    <contour>
      <point x="28" y="919" type="line"/>
      <point x="-7" y="893"/>
      <point x="142" y="967"/>
      <point x="259" y="961" type="curve"/>
      <point x="259" y="0" type="line"/>
      <point x="408" y="0" type="line"/>
      <point x="408" y="960" type="line"/>
      <point x="739" y="960" type="line"/>
      <point x="739" y="249" type="line"/>
      <point x="739" y="30"/>
      <point x="817" y="-20"/>
      <point x="1004" y="-23" type="curve"/>
      <point x="1054" y="105" type="line"/>
      <point x="913" y="138"/>
      <point x="889" y="157"/>
      <point x="889" y="327" type="curve"/>
      <point x="889" y="960" type="line"/>
      <point x="1071" y="960" type="line"/>
      <point x="1071" y="1052" type="line"/>
      <point x="207" y="1052" type="line"/>
      <point x="75" y="1052"/>
      <point x="5" y="981"/>
      <point x="28" y="1008" type="curve"/>
    </contour>
  </outline>
</glyph>
<glyph name="dagger" format="1">
  <advance width="810"/>
  <unicode hex="2020"/>
  <outline>
    <contour>
      <point x="311" y="0" type="line"/>
      <point x="489" y="0" type="line"/>
      <point x="489" y="975" type="line"/>
      <point x="764" y="975" type="line"/>
      <point x="764" y="1088" type="line"/>
      <point x="489" y="1088" type="line"/>
      <point x="489" y="1519" type="line"/>
      <point x="311" y="1519" type="line"/>
      <point x="311" y="1088" type="line"/>
      <point x="45" y="1088" type="line"/>
      <point x="45" y="975" type="line"/>
      <point x="311" y="975" type="line"/>
    </contour>
  </outline>
</glyph>
<glyph name="bullet" format="1">
  <advance width="946"/>
  <unicode hex="2022"/>
  <outline>
    <contour>
      <point x="471" y="243" type="curve" smooth="yes"/>
      <point x="718" y="243"/>
      <point x="773" y="334"/>
      <point x="773" y="534" type="curve" smooth="yes"/>
      <point x="773" y="737"/>
      <point x="720" y="827"/>
      <point x="472" y="827" type="curve" smooth="yes"/>
      <point x="228" y="827"/>
      <point x="173" y="737"/>
      <point x="173" y="534" type="curve" smooth="yes"/>
      <point x="173" y="333"/>
      <point x="225" y="243"/>
    </contour>
  </outline>
</glyph>
<glyph name="fraction" format="1">
  <advance width="677"/>
  <unicode hex="2044"/>
  <outline>
    <contour>
      <point x="-7" y="0" type="line"/>
      <point x="146" y="0" type="line"/>
      <point x="684" y="1500" type="line"/>
      <point x="537" y="1500" type="line"/>
    </contour>
  </outline>
</glyph>
